<svg xmlns="http://www.w3.org/2000/svg" viewBox="0 0 256 256">
  <defs>
    <linearGradient id="g" x1="0" y1="0" x2="1" y2="1">
      <stop offset="0%" stop-color="#34d399" />
      <stop offset="100%" stop-color="#3b82f6" />
    </linearGradient>
  </defs>
  <rect width="256" height="256" rx="56" fill="#020617" />
  <rect x="24" y="24" width="208" height="208" rx="48" fill="url(#g)" opacity="0.2" />
  <path
    d="M64 96c0-17.673 14.327-32 32-32h64c17.673 0 32 14.327 32 32v64c0 17.673-14.327 32-32 32H96c-17.673 0-32-14.327-32-32z"
    fill="url(#g)"
  />
  <path
    d="M112 112h32c17.673 0 32 14.327 32 32v16H80v-16c0-17.673 14.327-32 32-32z"
    fill="#020617"
  />
  <circle cx="112" cy="120" r="8" fill="#020617" />
  <circle cx="144" cy="120" r="8" fill="#020617" />
</svg>
